<svg width="180" height="180" viewBox="0 0 180 180" fill="none" xmlns="http://www.w3.org/2000/svg">
  <style>
    :root { --fg: #050509; } /* light mode */
    @media (prefers-color-scheme: dark) {
      :root { --fg: #ffffff; } /* dark mode */
    }
  </style>
  <g clip-path="url(#clip0_282_12)">
    <path d="M153.174 129.123C153.174 119.264 145.234 111.304 135.489 111.304H62.1404C49.5448 111.304 38.2135 105.909 30.2892 97.2993C28.3102 101.71 27.2084 106.608 27.2084 111.766V112.239C27.4593 131.468 43.019 146.94 62.135 146.94H135.49C145.235 146.94 153.175 138.983 153.175 129.123H153.174ZM153.174 50.2964C153.174 40.4367 145.234 32.4785 135.489 32.4785H62.1339C43.0255 32.4785 27.4713 47.94 27.2073 67.1575V67.6527C27.2073 72.8116 28.3092 77.7076 30.2881 82.1193C38.2124 73.5098 49.5437 68.1153 62.1393 68.1153H135.488C145.233 68.1153 153.174 60.1571 153.174 50.2964ZM161.642 50.2964C161.642 64.7978 149.952 76.5938 135.489 76.5938H62.1404C51.1506 76.5938 41.3368 81.7091 34.9299 89.7098C41.3368 97.7116 51.1506 102.826 62.1404 102.826H135.489C149.952 102.826 161.642 114.621 161.642 129.123C161.642 143.626 149.952 155.419 135.489 155.419H62.1339C38.1437 155.419 18.7332 135.854 18.7332 111.766V107.527H18.9437C19.5622 101.075 21.5782 95.0324 24.683 89.7087C21.5772 84.3851 19.5622 78.3425 18.9437 71.8909H18.7332V67.6516C18.7332 43.5644 38.1437 24 62.1339 24H135.489C149.952 24 161.642 35.7949 161.642 50.2964Z" fill="var(--fg)"/>
  </g>
  <defs>
    <clipPath id="clip0_282_12">
      <rect width="144" height="132" fill="white" transform="translate(18 24)"/>
    </clipPath>
  </defs>
</svg>
